<svg id="visual" viewBox="0 0 900 600" width="900" height="600" xmlns="http://www.w3.org/2000/svg" xmlns:xlink="http://www.w3.org/1999/xlink" version="1.1"><path d="M0 487L16.7 493.7C33.3 500.3 66.7 513.7 100 503.3C133.3 493 166.7 459 200 469.8C233.3 480.7 266.7 536.3 300 548.3C333.3 560.3 366.7 528.7 400 512.2C433.3 495.7 466.7 494.3 500 482C533.3 469.7 566.7 446.3 600 434.2C633.3 422 666.7 421 700 422.8C733.3 424.7 766.7 429.3 800 454.2C833.3 479 866.7 524 883.3 546.5L900 569L900 601L883.3 601C866.7 601 833.3 601 800 601C766.7 601 733.3 601 700 601C666.7 601 633.3 601 600 601C566.7 601 533.3 601 500 601C466.7 601 433.3 601 400 601C366.7 601 333.3 601 300 601C266.7 601 233.3 601 200 601C166.7 601 133.3 601 100 601C66.7 601 33.3 601 16.7 601L0 601Z" fill="#fa7268"></path><path d="M0 526L16.7 515.7C33.3 505.3 66.7 484.7 100 492.7C133.3 500.7 166.7 537.3 200 533.3C233.3 529.3 266.7 484.7 300 460.2C333.3 435.7 366.7 431.3 400 453C433.3 474.7 466.7 522.3 500 550.7C533.3 579 566.7 588 600 591.3C633.3 594.7 666.7 592.3 700 578.2C733.3 564 766.7 538 800 520.3C833.3 502.7 866.7 493.3 883.3 488.7L900 484L900 601L883.3 601C866.7 601 833.3 601 800 601C766.7 601 733.3 601 700 601C666.7 601 633.3 601 600 601C566.7 601 533.3 601 500 601C466.7 601 433.3 601 400 601C366.7 601 333.3 601 300 601C266.7 601 233.3 601 200 601C166.7 601 133.3 601 100 601C66.7 601 33.3 601 16.7 601L0 601Z" fill="#e34c67"></path><path d="M0 585L16.7 580.7C33.3 576.3 66.7 567.7 100 551.3C133.3 535 166.7 511 200 504C233.3 497 266.7 507 300 520.2C333.3 533.3 366.7 549.7 400 546.7C433.3 543.7 466.7 521.3 500 509.7C533.3 498 566.7 497 600 500.5C633.3 504 666.7 512 700 518C733.3 524 766.7 528 800 524.5C833.3 521 866.7 510 883.3 504.5L900 499L900 601L883.3 601C866.7 601 833.3 601 800 601C766.7 601 733.3 601 700 601C666.7 601 633.3 601 600 601C566.7 601 533.3 601 500 601C466.7 601 433.3 601 400 601C366.7 601 333.3 601 300 601C266.7 601 233.3 601 200 601C166.7 601 133.3 601 100 601C66.7 601 33.3 601 16.7 601L0 601Z" fill="#c62368"></path></svg>