<svg id="visual" viewBox="0 0 960 540" width="960" height="540" xmlns="http://www.w3.org/2000/svg" xmlns:xlink="http://www.w3.org/1999/xlink" version="1.1"><rect x="0" y="0" width="960" height="540" fill="#001220"></rect><path d="M0 377L22.8 359.3C45.7 341.7 91.3 306.3 137 294.3C182.7 282.3 228.3 293.7 274 302C319.7 310.3 365.3 315.7 411.2 321C457 326.3 503 331.7 548.8 350.7C594.7 369.7 640.3 402.3 686 420.3C731.7 438.3 777.3 441.7 823 438.3C868.7 435 914.3 425 937.2 420L960 415L960 541L937.2 541C914.3 541 868.7 541 823 541C777.3 541 731.7 541 686 541C640.3 541 594.7 541 548.8 541C503 541 457 541 411.2 541C365.3 541 319.7 541 274 541C228.3 541 182.7 541 137 541C91.3 541 45.7 541 22.8 541L0 541Z" fill="#fa7268"></path><path d="M0 440L22.8 444.3C45.7 448.7 91.3 457.3 137 453.7C182.7 450 228.3 434 274 427.2C319.7 420.3 365.3 422.7 411.2 405.8C457 389 503 353 548.8 337.3C594.7 321.7 640.3 326.3 686 344.7C731.7 363 777.3 395 823 393.7C868.7 392.3 914.3 357.7 937.2 340.3L960 323L960 541L937.2 541C914.3 541 868.7 541 823 541C777.3 541 731.7 541 686 541C640.3 541 594.7 541 548.8 541C503 541 457 541 411.2 541C365.3 541 319.7 541 274 541C228.3 541 182.7 541 137 541C91.3 541 45.7 541 22.8 541L0 541Z" fill="#ef5f67"></path><path d="M0 383L22.8 382.8C45.7 382.7 91.3 382.3 137 399C182.7 415.7 228.3 449.3 274 461.3C319.7 473.3 365.3 463.7 411.2 445.3C457 427 503 400 548.8 388C594.7 376 640.3 379 686 377.2C731.7 375.3 777.3 368.7 823 381.3C868.7 394 914.3 426 937.2 442L960 458L960 541L937.2 541C914.3 541 868.7 541 823 541C777.3 541 731.7 541 686 541C640.3 541 594.7 541 548.8 541C503 541 457 541 411.2 541C365.3 541 319.7 541 274 541C228.3 541 182.7 541 137 541C91.3 541 45.7 541 22.8 541L0 541Z" fill="#e34c67"></path><path d="M0 432L22.8 433.2C45.7 434.3 91.3 436.7 137 443.8C182.7 451 228.3 463 274 473C319.7 483 365.3 491 411.2 479.7C457 468.3 503 437.7 548.8 423.5C594.7 409.3 640.3 411.7 686 427.5C731.7 443.3 777.3 472.7 823 485.7C868.7 498.7 914.3 495.3 937.2 493.7L960 492L960 541L937.2 541C914.3 541 868.7 541 823 541C777.3 541 731.7 541 686 541C640.3 541 594.7 541 548.8 541C503 541 457 541 411.2 541C365.3 541 319.7 541 274 541C228.3 541 182.7 541 137 541C91.3 541 45.7 541 22.8 541L0 541Z" fill="#d53867"></path><path d="M0 517L22.8 509.7C45.7 502.3 91.3 487.7 137 490.5C182.7 493.3 228.3 513.7 274 515.5C319.7 517.3 365.3 500.7 411.2 487.5C457 474.3 503 464.7 548.8 459.5C594.7 454.3 640.3 453.7 686 454.2C731.7 454.7 777.3 456.3 823 466.8C868.7 477.3 914.3 496.7 937.2 506.3L960 516L960 541L937.2 541C914.3 541 868.7 541 823 541C777.3 541 731.7 541 686 541C640.3 541 594.7 541 548.8 541C503 541 457 541 411.2 541C365.3 541 319.7 541 274 541C228.3 541 182.7 541 137 541C91.3 541 45.7 541 22.8 541L0 541Z" fill="#c62368"></path></svg>