<svg id="visual" viewBox="0 0 900 600" width="900" height="600" xmlns="http://www.w3.org/2000/svg" xmlns:xlink="http://www.w3.org/1999/xlink" version="1.1"><path d="M0 498L21.5 505.7C43 513.3 86 528.7 128.8 535.3C171.7 542 214.3 540 257.2 506.3C300 472.7 343 407.3 385.8 392.8C428.7 378.3 471.3 414.7 514.2 446.8C557 479 600 507 642.8 521C685.7 535 728.3 535 771.2 506.7C814 478.3 857 421.7 878.5 393.3L900 365L900 601L878.5 601C857 601 814 601 771.2 601C728.3 601 685.7 601 642.8 601C600 601 557 601 514.2 601C471.3 601 428.7 601 385.8 601C343 601 300 601 257.2 601C214.3 601 171.7 601 128.8 601C86 601 43 601 21.5 601L0 601Z" fill="#fa7268"></path><path d="M0 468L21.5 483C43 498 86 528 128.8 532.8C171.7 537.7 214.3 517.3 257.2 516.2C300 515 343 533 385.8 544.3C428.7 555.7 471.3 560.3 514.2 544.3C557 528.3 600 491.7 642.8 470.3C685.7 449 728.3 443 771.2 423.7C814 404.3 857 371.7 878.5 355.3L900 339L900 601L878.5 601C857 601 814 601 771.2 601C728.3 601 685.7 601 642.8 601C600 601 557 601 514.2 601C471.3 601 428.7 601 385.8 601C343 601 300 601 257.2 601C214.3 601 171.7 601 128.8 601C86 601 43 601 21.5 601L0 601Z" fill="#f66b68"></path><path d="M0 406L21.5 410.3C43 414.7 86 423.3 128.8 449.2C171.7 475 214.3 518 257.2 526.3C300 534.7 343 508.3 385.8 481C428.7 453.7 471.3 425.3 514.2 433.8C557 442.3 600 487.7 642.8 504.3C685.7 521 728.3 509 771.2 478.2C814 447.3 857 397.7 878.5 372.8L900 348L900 601L878.5 601C857 601 814 601 771.2 601C728.3 601 685.7 601 642.8 601C600 601 557 601 514.2 601C471.3 601 428.7 601 385.8 601C343 601 300 601 257.2 601C214.3 601 171.7 601 128.8 601C86 601 43 601 21.5 601L0 601Z" fill="#f26467"></path><path d="M0 481L21.5 475.5C43 470 86 459 128.8 444.5C171.7 430 214.3 412 257.2 420.7C300 429.3 343 464.7 385.8 463.2C428.7 461.7 471.3 423.3 514.2 416.8C557 410.3 600 435.7 642.8 444.2C685.7 452.7 728.3 444.3 771.2 461.2C814 478 857 520 878.5 541L900 562L900 601L878.5 601C857 601 814 601 771.2 601C728.3 601 685.7 601 642.8 601C600 601 557 601 514.2 601C471.3 601 428.7 601 385.8 601C343 601 300 601 257.2 601C214.3 601 171.7 601 128.8 601C86 601 43 601 21.5 601L0 601Z" fill="#ee5d67"></path><path d="M0 454L21.5 459.2C43 464.3 86 474.7 128.8 486C171.7 497.3 214.3 509.7 257.2 519.2C300 528.7 343 535.3 385.8 521.7C428.7 508 471.3 474 514.2 473.5C557 473 600 506 642.8 521.7C685.7 537.3 728.3 535.7 771.2 521.5C814 507.3 857 480.7 878.5 467.3L900 454L900 601L878.5 601C857 601 814 601 771.2 601C728.3 601 685.7 601 642.8 601C600 601 557 601 514.2 601C471.3 601 428.7 601 385.8 601C343 601 300 601 257.2 601C214.3 601 171.7 601 128.8 601C86 601 43 601 21.5 601L0 601Z" fill="#ea5667"></path><path d="M0 528L21.5 513.3C43 498.7 86 469.3 128.8 458.8C171.7 448.3 214.3 456.7 257.2 473C300 489.3 343 513.7 385.8 523.3C428.7 533 471.3 528 514.2 525C557 522 600 521 642.8 511.8C685.7 502.7 728.3 485.3 771.2 495.2C814 505 857 542 878.5 560.5L900 579L900 601L878.5 601C857 601 814 601 771.2 601C728.3 601 685.7 601 642.8 601C600 601 557 601 514.2 601C471.3 601 428.7 601 385.8 601C343 601 300 601 257.2 601C214.3 601 171.7 601 128.8 601C86 601 43 601 21.5 601L0 601Z" fill="#e54f67"></path><path d="M0 571L21.5 553.8C43 536.7 86 502.3 128.8 485.3C171.7 468.3 214.3 468.7 257.2 480.8C300 493 343 517 385.8 528.8C428.7 540.7 471.3 540.3 514.2 538.3C557 536.3 600 532.7 642.8 524.2C685.7 515.7 728.3 502.3 771.2 501.7C814 501 857 513 878.5 519L900 525L900 601L878.5 601C857 601 814 601 771.2 601C728.3 601 685.7 601 642.8 601C600 601 557 601 514.2 601C471.3 601 428.7 601 385.8 601C343 601 300 601 257.2 601C214.3 601 171.7 601 128.8 601C86 601 43 601 21.5 601L0 601Z" fill="#e14867"></path><path d="M0 575L21.5 571.3C43 567.7 86 560.3 128.8 549.2C171.7 538 214.3 523 257.2 514.3C300 505.7 343 503.3 385.8 496.2C428.7 489 471.3 477 514.2 475.8C557 474.7 600 484.3 642.8 484.3C685.7 484.3 728.3 474.7 771.2 479.3C814 484 857 503 878.5 512.5L900 522L900 601L878.5 601C857 601 814 601 771.2 601C728.3 601 685.7 601 642.8 601C600 601 557 601 514.2 601C471.3 601 428.7 601 385.8 601C343 601 300 601 257.2 601C214.3 601 171.7 601 128.8 601C86 601 43 601 21.5 601L0 601Z" fill="#dc4167"></path><path d="M0 560L21.5 563.7C43 567.3 86 574.7 128.8 569.5C171.7 564.3 214.3 546.7 257.2 539.3C300 532 343 535 385.8 538.8C428.7 542.7 471.3 547.3 514.2 545.3C557 543.3 600 534.7 642.8 537C685.7 539.3 728.3 552.7 771.2 552.5C814 552.3 857 538.7 878.5 531.8L900 525L900 601L878.5 601C857 601 814 601 771.2 601C728.3 601 685.7 601 642.8 601C600 601 557 601 514.2 601C471.3 601 428.7 601 385.8 601C343 601 300 601 257.2 601C214.3 601 171.7 601 128.8 601C86 601 43 601 21.5 601L0 601Z" fill="#d73a67"></path><path d="M0 561L21.5 557.3C43 553.7 86 546.3 128.8 542.8C171.7 539.3 214.3 539.7 257.2 542C300 544.3 343 548.7 385.8 556.5C428.7 564.3 471.3 575.7 514.2 578.2C557 580.7 600 574.3 642.8 570.8C685.7 567.3 728.3 566.7 771.2 559.3C814 552 857 538 878.5 531L900 524L900 601L878.5 601C857 601 814 601 771.2 601C728.3 601 685.7 601 642.8 601C600 601 557 601 514.2 601C471.3 601 428.7 601 385.8 601C343 601 300 601 257.2 601C214.3 601 171.7 601 128.8 601C86 601 43 601 21.5 601L0 601Z" fill="#d13367"></path><path d="M0 532L21.5 535.5C43 539 86 546 128.8 553.3C171.7 560.7 214.3 568.3 257.2 569.7C300 571 343 566 385.8 560.2C428.7 554.3 471.3 547.7 514.2 550.2C557 552.7 600 564.3 642.8 565.5C685.7 566.7 728.3 557.3 771.2 560.5C814 563.7 857 579.3 878.5 587.2L900 595L900 601L878.5 601C857 601 814 601 771.2 601C728.3 601 685.7 601 642.8 601C600 601 557 601 514.2 601C471.3 601 428.7 601 385.8 601C343 601 300 601 257.2 601C214.3 601 171.7 601 128.8 601C86 601 43 601 21.5 601L0 601Z" fill="#cc2b68"></path><path d="M0 581L21.5 581C43 581 86 581 128.8 576.5C171.7 572 214.3 563 257.2 558.3C300 553.7 343 553.3 385.8 559.3C428.7 565.3 471.3 577.7 514.2 583.8C557 590 600 590 642.8 585.8C685.7 581.7 728.3 573.3 771.2 568.7C814 564 857 563 878.5 562.5L900 562L900 601L878.5 601C857 601 814 601 771.2 601C728.3 601 685.7 601 642.8 601C600 601 557 601 514.2 601C471.3 601 428.7 601 385.8 601C343 601 300 601 257.2 601C214.3 601 171.7 601 128.8 601C86 601 43 601 21.5 601L0 601Z" fill="#c62368"></path></svg>