<svg id="visual" viewBox="0 0 960 540" width="960" height="540" xmlns="http://www.w3.org/2000/svg" xmlns:xlink="http://www.w3.org/1999/xlink" version="1.1"><rect x="0" y="0" width="960" height="540" fill="#001220"></rect><path d="M0 183L22.8 190C45.7 197 91.3 211 137 202C182.7 193 228.3 161 274 149C319.7 137 365.3 145 411.2 167.8C457 190.7 503 228.3 548.8 240.7C594.7 253 640.3 240 686 221.7C731.7 203.3 777.3 179.7 823 201.2C868.7 222.7 914.3 289.3 937.2 322.7L960 356L960 0L937.2 0C914.3 0 868.7 0 823 0C777.3 0 731.7 0 686 0C640.3 0 594.7 0 548.8 0C503 0 457 0 411.2 0C365.3 0 319.7 0 274 0C228.3 0 182.7 0 137 0C91.3 0 45.7 0 22.8 0L0 0Z" fill="#fa7268"></path><path d="M0 257L22.8 250C45.7 243 91.3 229 137 233C182.7 237 228.3 259 274 267.5C319.7 276 365.3 271 411.2 256.2C457 241.3 503 216.7 548.8 195.3C594.7 174 640.3 156 686 174.3C731.7 192.7 777.3 247.3 823 261.3C868.7 275.3 914.3 248.7 937.2 235.3L960 222L960 0L937.2 0C914.3 0 868.7 0 823 0C777.3 0 731.7 0 686 0C640.3 0 594.7 0 548.8 0C503 0 457 0 411.2 0C365.3 0 319.7 0 274 0C228.3 0 182.7 0 137 0C91.3 0 45.7 0 22.8 0L0 0Z" fill="#ef5f67"></path><path d="M0 195L22.8 188C45.7 181 91.3 167 137 173.2C182.7 179.3 228.3 205.7 274 220.2C319.7 234.7 365.3 237.3 411.2 215.5C457 193.7 503 147.3 548.8 147.7C594.7 148 640.3 195 686 190.5C731.7 186 777.3 130 823 104.5C868.7 79 914.3 84 937.2 86.5L960 89L960 0L937.2 0C914.3 0 868.7 0 823 0C777.3 0 731.7 0 686 0C640.3 0 594.7 0 548.8 0C503 0 457 0 411.2 0C365.3 0 319.7 0 274 0C228.3 0 182.7 0 137 0C91.3 0 45.7 0 22.8 0L0 0Z" fill="#e34c67"></path><path d="M0 38L22.8 54.2C45.7 70.3 91.3 102.7 137 122.7C182.7 142.7 228.3 150.3 274 145.8C319.7 141.3 365.3 124.7 411.2 111.2C457 97.7 503 87.3 548.8 89C594.7 90.7 640.3 104.3 686 122.7C731.7 141 777.3 164 823 160.8C868.7 157.7 914.3 128.3 937.2 113.7L960 99L960 0L937.2 0C914.3 0 868.7 0 823 0C777.3 0 731.7 0 686 0C640.3 0 594.7 0 548.8 0C503 0 457 0 411.2 0C365.3 0 319.7 0 274 0C228.3 0 182.7 0 137 0C91.3 0 45.7 0 22.8 0L0 0Z" fill="#d53867"></path><path d="M0 6L22.8 23.7C45.7 41.3 91.3 76.7 137 89.7C182.7 102.7 228.3 93.3 274 83.2C319.7 73 365.3 62 411.2 56.2C457 50.3 503 49.7 548.8 61.3C594.7 73 640.3 97 686 95.2C731.7 93.3 777.3 65.7 823 62.8C868.7 60 914.3 82 937.2 93L960 104L960 0L937.2 0C914.3 0 868.7 0 823 0C777.3 0 731.7 0 686 0C640.3 0 594.7 0 548.8 0C503 0 457 0 411.2 0C365.3 0 319.7 0 274 0C228.3 0 182.7 0 137 0C91.3 0 45.7 0 22.8 0L0 0Z" fill="#c62368"></path></svg>